<svg class="img-fluid logo" id="outputsvg" xmlns="http://www.w3.org/2000/svg" style="transform: matrix(1.3, 0, 0, 1.3, 0, 0); transform-origin: 50% 50%; cursor: move; max-height: 344.62px; transition: transform 200ms ease-in-out;" width="1000" height="1000" viewBox="0 0 10000 10000"><defs><linearGradient id="backgroundGradient" x1="0%" y1="0%" x2="0%" y2="100%"><stop offset="0%" style="stop-color:rgba(1, 154, 221, 1);stop-opacity:1" /><stop offset="100%" style="stop-color:rgba(21, 69, 109, 1);stop-opacity:1" /></linearGradient></defs><rect width="100%" height="100%" fill="url(#backgroundGradient)"/><g id="l0lL7Kn2RmVrWgGES6ycgV" fill="rgb(250,251,252)" style="transform: none;"><g><path id="pFS9c7a6H" d="M5307 6643 c-4 -3 -7 -94 -7 -200 0 -155 3 -197 14 -209 8 -8 19 -14 24 -14 11 0 22 34 22 73 0 23 4 27 31 27 26 0 30 3 27 23 -2 15 -11 23 -30 25 -14 2 -28 9 -30 15 -3 7 -3 58 0 115 5 123 -4 118 183 109 120 -5 129 -4 129 12 0 13 -10 20 -37 25 -51 8 -318 8 -326 -1z"></path><path id="p13Y05RNE" d="M5980 6631 c0 -11 -6 -21 -12 -24 -10 -3 -13 -40 -13 -140 0 -103 3 -137 13 -137 6 0 12 -9 12 -20 0 -13 7 -20 20 -20 18 0 20 7 20 60 l0 60 113 0 c67 -1 127 -6 149 -14 35 -13 38 -12 44 7 4 12 2 23 -5 25 -6 2 -11 10 -11 17 0 7 -6 25 -14 39 l-14 27 -20 -26 c-20 -25 -23 -26 -129 -23 l-108 3 -3 80 c-3 74 -12 105 -33 105 -5 0 -9 -9 -9 -19z"></path><path id="pe8yViIUc" d="M6372 6634 c-31 -22 -51 -65 -45 -97 l6 -28 28 27 c16 15 29 33 29 40 0 6 9 23 20 37 11 14 20 28 20 31 0 12 -36 6 -58 -10z"></path><path id="pJQ52W4Ry" d="M8030 6489 l0 -160 23 3 c21 3 22 8 27 133 l5 130 175 6 c96 3 176 6 178 7 1 1 -2 11 -8 22 -10 19 -21 20 -205 20 l-195 0 0 -161z"></path><path id="pSGXYwxMW" d="M7493 6633 c-18 -7 -16 -43 1 -43 8 0 23 -11 34 -25 20 -25 42 -33 42 -15 0 6 7 10 15 10 26 0 16 19 -27 50 -42 31 -45 32 -65 23z"></path><path id="p14TN5rCxQ" d="M5680 6613 c0 -11 13 -29 29 -41 41 -30 50 -87 22 -146 -20 -41 -24 -44 -74 -50 -28 -3 -71 -6 -95 -6 -39 0 -43 -2 -40 -22 3 -20 10 -24 64 -29 116 -11 167 -90 114 -177 -24 -38 -25 -51 -6 -58 15 -6 57 29 74 63 26 48 7 113 -32 113 -20 0 -22 4 -18 25 3 17 -1 30 -12 38 -15 11 -13 15 23 36 47 26 67 59 72 116 7 84 -25 138 -89 151 -27 6 -32 4 -32 -13z"></path><path id="ppYYaSsT9" d="M7766 6588 c-4 -23 -6 -149 -5 -280 l1 -238 33 0 33 0 -3 268 c-2 147 -4 273 -4 280 -1 6 -12 12 -25 12 -20 0 -24 -6 -30 -42z"></path><path id="p17EuiE74W" d="M7016 6557 c-3 -18 -13 -43 -22 -55 -15 -21 -21 -22 -184 -22 l-169 0 -17 36 c-11 23 -22 33 -31 30 -8 -4 -19 -6 -24 -6 -17 0 -9 -29 23 -87 17 -32 36 -68 42 -80 7 -14 20 -23 35 -23 20 0 22 3 16 23 -4 12 -8 33 -9 46 l-1 24 135 -2 c74 -1 136 -4 137 -5 2 -1 -3 -26 -11 -54 -13 -52 -13 -52 10 -52 15 0 24 6 24 15 0 8 4 15 9 15 4 0 16 21 26 48 10 26 31 71 46 101 30 60 29 81 -6 81 -18 0 -24 -7 -29 -33z"></path><path id="pkrXm6yJi" d="M7557 6507 c3 -13 -4 -39 -14 -58 -20 -35 -26 -38 -155 -75 -59 -17 -67 -25 -46 -47 14 -16 147 7 164 29 6 8 16 14 23 14 6 0 11 5 11 10 0 6 9 10 19 10 30 0 51 39 51 92 0 46 -1 48 -29 48 -24 0 -28 -3 -24 -23z"></path><path id="pRWuhQ9kM" d="M8913 6393 c-14 -9 -23 -26 -23 -40 0 -22 2 -24 15 -13 12 10 15 10 15 -4 0 -8 -11 -18 -25 -22 -30 -7 -46 3 -25 16 29 18 -1 23 -69 11 -39 -6 -88 -11 -111 -11 l-41 0 3 -42 3 -43 80 1 c103 1 185 14 185 29 0 6 17 16 38 21 36 9 37 10 40 62 l3 52 -33 -1 c-18 0 -43 -7 -55 -16z"></path><path id="pDZJS8sM2" d="M7228 6309 c-29 -16 -51 -75 -45 -120 7 -52 28 -83 77 -114 48 -30 50 -31 50 -4 0 12 -16 37 -35 56 -44 43 -49 97 -11 132 41 39 12 79 -36 50z"></path><path id="py17yEy7C" d="M8030 6270 c0 -43 3 -50 20 -50 17 0 20 7 20 50 0 43 -3 50 -20 50 -17 0 -20 -7 -20 -50z"></path><path id="p11E34z9Vx" d="M6380 6253 c0 -50 -35 -114 -72 -134 -10 -6 -18 -21 -18 -35 0 -30 7 -29 70 11 39 25 42 29 37 61 -5 29 -3 34 14 34 16 0 19 7 19 55 0 52 -1 55 -25 55 -23 0 -25 -4 -25 -47z"></path><path id="p1GkFp0E5j" d="M6878 6259 c-10 -17 -18 -36 -18 -42 0 -18 -43 -107 -52 -107 -5 0 -11 7 -14 15 -6 15 -54 22 -54 8 0 -5 10 -26 23 -48 17 -29 30 -41 50 -43 22 -3 30 1 34 19 3 12 26 62 50 111 23 49 43 96 43 104 0 27 -44 15 -62 -17z"></path><path id="pP2irAoTc" d="M5950 6208 c0 -34 6 -86 12 -115 l13 -53 132 0 133 0 0 25 0 25 -110 0 -110 0 0 80 c0 64 -3 80 -15 80 -8 0 -15 5 -15 10 0 6 -9 10 -20 10 -18 0 -20 -7 -20 -62z"></path><path id="pJeWs1hfe" d="M6713 6236 c-20 -23 4 -86 32 -86 20 0 25 40 9 72 -16 31 -23 34 -41 14z"></path><path id="peUrCBcDX" d="M3271 6169 c-31 -6 -61 -23 -102 -59 -31 -27 -69 -54 -84 -60 -17 -6 -279 -10 -724 -10 -729 0 -745 -1 -778 -42 -12 -15 -90 -236 -123 -348 -12 -41 -39 -136 -61 -210 -22 -74 -55 -191 -74 -260 -18 -69 -41 -145 -50 -170 -9 -25 -23 -76 -31 -115 -9 -38 -24 -93 -34 -120 -10 -28 -20 -64 -23 -80 -9 -51 -36 -148 -52 -185 -8 -19 -21 -62 -29 -95 -8 -33 -26 -100 -40 -150 -38 -133 -36 -209 11 -333 82 -217 252 -337 525 -372 55 -7 867 -10 2391 -10 l2308 0 24 25 c31 30 33 75 4 101 -21 19 -79 19 -2398 24 l-2376 5 -73 22 c-153 45 -251 152 -288 315 -18 79 -10 130 51 333 35 115 79 273 143 510 17 61 40 140 51 175 12 36 26 85 32 110 5 25 25 97 45 160 44 145 83 272 100 330 7 25 23 74 34 110 12 36 24 79 28 95 l8 30 714 5 c805 6 748 0 838 85 l43 40 688 5 c660 5 690 6 710 24 15 14 21 31 21 63 0 38 -4 45 -26 53 -32 12 -1340 11 -1403 -1z"></path><path id="pgXi56J7" d="M5300 6090 l0 -50 45 0 c41 0 45 2 45 25 0 15 -6 25 -15 25 -8 0 -17 11 -21 25 -4 18 -13 25 -30 25 -22 0 -24 -4 -24 -50z"></path><path id="p1E8ljpwWW" d="M5437 6084 c-4 -4 -7 -16 -7 -26 0 -17 8 -18 98 -16 89 3 97 5 97 23 0 18 -8 20 -90 23 -50 1 -94 0 -98 -4z"></path><path id="preU8kCp" d="M7322 6068 c4 -27 44 -38 109 -29 36 5 45 10 47 29 3 21 1 22 -78 22 -78 0 -81 -1 -78 -22z"></path><path id="pDBD43UMR" d="M2080 5450 c-106 -8 -166 -33 -225 -93 -73 -75 -70 -53 -73 -544 -3 -486 -4 -474 59 -553 34 -42 78 -73 144 -102 36 -15 90 -17 543 -17 l502 -1 0 80 0 80 -474 0 c-312 0 -484 4 -503 11 -15 6 -39 20 -51 32 -43 40 -52 80 -52 223 l0 134 448 2 447 3 3 54 c2 30 1 65 -3 78 l-5 23 -445 0 -445 0 0 160 c0 152 1 162 24 198 53 83 7 77 562 80 l495 3 -3 77 -3 77 -425 1 c-234 0 -468 -2 -520 -6z"></path><path id="pVREBXIYo" d="M3155 5450 c-5 -8 21 -65 54 -120 5 -8 18 -33 29 -55 21 -44 144 -283 272 -530 46 -88 134 -259 195 -380 l112 -220 105 -3 106 -3 102 203 c100 199 132 260 269 523 37 72 105 202 150 290 46 88 90 173 99 189 8 16 17 48 20 72 l5 44 -77 0 c-64 0 -78 -3 -83 -17 -7 -18 -44 -78 -61 -98 -5 -6 -12 -24 -16 -40 -4 -17 -12 -35 -17 -41 -16 -19 -59 -104 -59 -116 0 -12 -49 -88 -63 -99 -12 -9 -741 -11 -752 -2 -6 5 -42 71 -79 148 -38 77 -73 142 -77 145 -5 3 -15 25 -24 50 -8 24 -20 49 -26 57 -13 15 -174 19 -184 3z m1055 -562 c0 -13 -69 -161 -101 -218 -11 -19 -29 -55 -40 -80 -11 -25 -27 -56 -35 -70 -8 -14 -29 -54 -46 -90 -31 -66 -54 -100 -70 -100 -4 0 -20 24 -33 53 -34 69 -84 168 -95 187 -34 55 -150 296 -150 311 0 18 14 19 285 19 217 0 285 -3 285 -12z"></path><path id="paqvcxKUW" d="M4806 5451 c-6 -10 22 -89 40 -111 7 -8 28 -46 47 -85 50 -102 304 -595 386 -750 43 -80 96 -185 153 -303 l31 -62 103 0 c102 0 103 0 123 29 12 16 21 33 21 38 0 10 203 413 294 583 31 58 72 137 92 175 19 39 44 86 54 104 11 19 27 51 36 70 8 20 35 72 59 116 81 150 97 188 83 197 -7 4 -46 7 -86 7 -69 -1 -74 -3 -96 -33 -13 -17 -29 -47 -35 -67 -7 -20 -25 -56 -41 -80 -15 -24 -36 -64 -46 -89 -10 -25 -33 -69 -51 -97 l-34 -53 -333 0 c-399 0 -416 2 -436 42 -123 244 -186 364 -195 370 -14 11 -163 10 -169 -1z m1049 -561 c6 -9 -54 -141 -108 -240 -7 -14 -22 -41 -32 -60 -10 -19 -42 -82 -72 -140 -30 -58 -59 -109 -63 -114 -12 -12 -39 22 -74 93 -16 31 -35 70 -44 86 -111 214 -181 362 -177 373 6 16 560 18 570 2z"></path><path id="pfobaTO4r" d="M6780 5440 c-6 -12 -10 -227 -10 -569 l0 -551 -275 0 -276 0 3 -87 3 -88 630 -3 c347 -1 640 0 653 3 22 5 23 9 20 88 l-3 82 -272 3 -273 2 -2 568 -3 567 -93 2 c-80 1 -94 -1 -102 -17z"></path><path id="pBq7ZE8Kr" d="M7396 5452 c-5 -4 28 -71 54 -112 5 -8 48 -93 94 -189 47 -95 90 -179 94 -185 10 -12 153 -289 307 -591 131 -259 107 -235 231 -235 91 0 105 2 110 17 7 21 70 159 85 186 54 99 69 129 69 137 0 6 12 29 26 52 14 22 59 104 99 182 93 182 177 342 337 648 53 101 54 98 -63 98 -67 0 -81 -3 -86 -17 -4 -10 -19 -40 -35 -66 -15 -26 -28 -53 -28 -58 0 -6 -17 -41 -39 -77 -21 -37 -42 -78 -46 -92 -4 -14 -21 -44 -37 -67 l-29 -43 -318 0 c-175 0 -345 3 -379 6 -52 6 -62 10 -72 33 -7 14 -17 35 -23 46 -6 11 -26 52 -44 90 -19 39 -41 81 -49 95 -8 14 -26 48 -39 75 -12 28 -29 56 -37 62 -13 11 -172 16 -182 5z m1054 -580 c0 -15 -8 -38 -17 -52 -15 -21 -113 -211 -214 -412 -21 -43 -42 -78 -47 -78 -12 0 -32 22 -32 37 0 7 -17 41 -39 76 -21 35 -42 73 -46 86 -4 13 -17 38 -29 56 -13 18 -28 48 -35 66 -7 19 -19 45 -27 59 -47 81 -85 164 -80 176 4 12 55 14 286 14 l280 0 0 -28z"></path></g></g><g id="lE7Nk0CRCYSEkyHZmu1H7i" fill="rgb(245,254,255)" style="transform: none;"><g><path id="pxZjt2arG" d="M5964 6638 c-13 -21 -14 -462 -1 -449 6 6 19 11 28 11 23 0 29 23 28 98 -1 54 -4 61 -23 64 -17 2 -22 11 -24 42 -4 51 5 86 23 86 15 0 32 46 21 57 -3 4 -6 -3 -6 -15 0 -13 -6 -22 -15 -22 -8 0 -15 6 -15 13 0 6 -3 22 -6 35 -5 17 -2 22 14 22 13 0 21 8 24 24 7 38 -30 64 -48 34z"></path><path id="pVyaVQ11i" d="M6408 6643 c-20 -5 -33 -33 -14 -33 13 0 42 28 35 33 -2 2 -11 2 -21 0z"></path><path id="pUpehNJjT" d="M6515 6628 c4 -13 15 -39 25 -58 10 -19 21 -43 24 -52 6 -21 56 -25 56 -5 0 19 -50 121 -63 129 -7 4 -20 8 -30 8 -14 0 -17 -5 -12 -22z"></path><path id="pig67eAdY" d="M7040 6618 c-21 -35 -27 -74 -10 -63 6 3 10 1 10 -4 0 -27 30 -7 41 27 6 20 15 42 20 48 11 14 1 24 -23 24 -10 0 -27 -15 -38 -32z"></path><path id="pxiLRdci8" d="M7276 6639 c-55 -13 -108 -48 -104 -68 5 -22 30 -18 107 14 65 27 91 29 219 12 21 -3 55 -27 39 -27 -4 0 -1 -13 8 -30 8 -16 15 -39 15 -52 1 -21 2 -22 14 -5 7 9 19 17 26 17 18 0 5 69 -17 89 -51 46 -76 54 -173 57 -52 2 -113 -1 -134 -7z"></path><path id="pl6nkUUPS" d="M7783 6643 c-7 -2 -13 -15 -13 -28 0 -19 4 -22 21 -18 12 4 25 0 30 -8 6 -9 7 -4 3 16 -11 47 -14 50 -41 38z"></path><path id="p0Dju0dSB" d="M8117 6636 c-4 -10 0 -12 14 -9 22 6 26 23 5 23 -8 0 -16 -6 -19 -14z"></path><path id="pVqOS3Fel" d="M5380 6631 c0 -11 25 -21 56 -21 15 0 24 6 24 15 0 11 -11 15 -40 15 -22 0 -40 -4 -40 -9z"></path><path id="pr2CDqXLA" d="M5633 6626 c4 -10 -2 -16 -16 -19 -15 -3 -11 -5 11 -6 18 0 46 -8 62 -16 24 -12 28 -13 24 -1 -3 8 4 16 18 20 22 6 21 7 -11 21 -44 20 -95 20 -88 1z"></path><path id="pNMm9qOWR" d="M6301 6540 c-29 -44 -60 -80 -68 -80 -8 0 -11 -5 -8 -10 4 -6 14 -10 23 -9 28 2 58 -2 45 -7 -18 -8 -6 -30 39 -74 32 -31 41 -48 45 -84 7 -61 -2 -90 -40 -130 -29 -30 -87 -56 -123 -56 -7 0 -14 -7 -18 -15 -3 -8 -1 -15 5 -15 6 0 7 -5 3 -11 -12 -20 65 -1 126 30 43 22 60 38 77 72 29 58 30 83 3 76 -16 -4 -20 0 -20 18 0 18 4 22 20 18 53 -14 -4 120 -65 153 -19 10 -35 25 -35 34 0 8 16 38 35 67 28 42 31 52 19 57 -10 4 -13 13 -9 26 3 11 5 20 3 20 -2 0 -27 -36 -57 -80z m49 -425 c-13 -14 -26 -22 -29 -19 -3 3 5 14 19 24 34 27 38 25 10 -5z"></path><path id="pkcVxGUe6" d="M5744 6585 c-7 -17 12 -45 31 -45 7 0 16 -7 19 -16 9 -22 8 -24 -9 -24 -9 0 -15 -9 -15 -22 0 -40 -12 -69 -26 -64 -7 3 -18 -2 -24 -9 -7 -8 -27 -17 -46 -21 -40 -7 -43 -22 -10 -57 13 -14 22 -28 19 -31 -5 -5 -1 -11 42 -61 15 -17 24 -37 22 -47 -4 -13 1 -18 14 -18 42 0 7 108 -48 148 l-27 20 35 17 c40 21 68 51 74 79 11 58 11 79 1 109 -20 58 -40 74 -52 42z"></path><path id="ptEi5gIuT" d="M5301 6542 c0 -27 3 -41 9 -37 6 4 8 11 5 16 -4 5 4 5 19 -1 20 -7 24 -6 19 5 -3 8 -13 15 -23 15 -11 0 -20 9 -23 23 -2 12 -5 3 -6 -21z"></path><path id="pjqyS29Nu" d="M6662 6464 c2 -10 15 -18 31 -20 21 -2 27 2 27 17 0 15 -7 19 -31 19 -23 0 -30 -4 -27 -16z"></path><path id="p4bJbxFw7" d="M6850 6466 c0 -22 19 -30 35 -16 22 18 18 30 -10 30 -15 0 -25 -6 -25 -14z"></path><path id="pu1LDEE4P" d="M8050 6460 c0 -5 7 -10 15 -10 8 0 15 5 15 10 0 6 -7 10 -15 10 -8 0 -15 -4 -15 -10z"></path><path id="p1A6K7qbVP" d="M6040 6445 c0 -16 35 -20 64 -9 29 11 16 24 -24 24 -29 0 -40 -4 -40 -15z"></path><path id="plG9Fa3Y0" d="M7541 6441 c-1 -17 -31 -40 -51 -41 -16 0 -23 -60 -7 -60 4 0 34 17 65 37 53 35 55 38 30 41 -15 2 -29 11 -31 20 -3 11 -5 12 -6 3z"></path><path id="p7ZO0oUkd" d="M5302 6380 c1 -36 3 -49 5 -29 4 32 7 35 27 32 21 -4 23 -2 18 22 -3 20 -9 25 -23 22 -10 -3 -20 0 -23 7 -2 6 -4 -18 -4 -54z"></path><path id="pq1jm54co" d="M8050 6430 c0 -5 7 -10 15 -10 8 0 15 5 15 10 0 6 -7 10 -15 10 -8 0 -15 -4 -15 -10z"></path><path id="p7JFiQJDE" d="M6941 6394 c0 -17 -9 -42 -19 -55 -10 -13 -23 -36 -29 -51 -10 -23 -9 -27 10 -32 33 -9 37 -8 37 13 0 10 8 29 18 42 17 23 42 74 42 86 0 3 -11 3 -25 1 -16 -4 -25 0 -28 11 -3 9 -5 2 -6 -15z"></path><path id="p2kr8vTc9" d="M7767 6413 c-11 -10 -8 -61 3 -68 6 -4 10 10 10 34 0 42 -2 46 -13 34z"></path><path id="pZYEuXmsz" d="M6628 6390 c6 -8 12 -21 12 -30 0 -9 9 -35 20 -58 11 -22 20 -46 20 -52 0 -5 4 -10 9 -10 5 0 13 -15 16 -32 4 -18 18 -49 31 -70 13 -21 24 -41 24 -46 0 -4 7 -17 16 -28 15 -18 15 -18 5 3 -14 29 -14 33 5 33 20 0 14 18 -44 140 -24 52 -48 106 -52 120 -4 16 -13 24 -24 22 -10 -2 -25 2 -34 9 -14 11 -15 11 -4 -1z"></path><path id="pMK6wGvpx" d="M8044 6373 c-6 -11 -12 -84 -13 -176 l-2 -158 28 3 c22 2 28 8 27 26 0 12 -1 90 -2 172 -2 113 -5 150 -15 150 -7 0 -17 -8 -23 -17z"></path><path id="p11pS7kiEu" d="M7375 6370 c-3 -5 -15 -10 -26 -10 -11 0 -45 -12 -75 -27 -47 -23 -53 -29 -40 -39 9 -6 16 -16 16 -23 0 -16 7 -14 41 12 17 12 56 30 87 39 47 13 52 17 27 18 -16 1 -24 4 -17 7 14 5 17 33 3 33 -6 0 -13 -4 -16 -10z"></path><path id="pfxwHA3x6" d="M5370 6358 c0 -29 24 -38 105 -38 76 0 83 2 92 23 l11 24 -104 2 c-82 2 -104 -1 -104 -11z"></path><path id="pa8uVDEKN" d="M5300 6160 l0 -117 72 -1 c71 -2 148 20 148 41 0 9 -159 6 -189 -4 -9 -2 -17 4 -19 15 -3 15 1 18 20 14 20 -4 23 0 25 26 0 17 -1 54 -4 82 -4 45 -7 52 -29 57 l-24 4 0 -117z"></path><path id="pky4eaxaI" d="M6867 6243 c-4 -3 -7 -19 -7 -35 0 -15 -4 -28 -9 -28 -12 0 -22 -45 -15 -64 10 -26 22 -19 44 26 24 50 24 52 5 44 -12 -4 -14 1 -9 29 5 35 3 41 -9 28z"></path><path id="pcYX2hAsJ" d="M7181 6219 c-2 -60 16 -96 51 -103 17 -3 33 -4 35 -2 2 2 -4 17 -14 35 -17 29 -43 42 -43 21 0 -5 7 -10 15 -10 13 0 14 -2 3 -14 -17 -19 -30 2 -39 64 -6 43 -6 43 -8 9z"></path><path id="pXIVno01o" d="M4593 6166 c9 -10 25 -16 34 -14 28 4 43 -11 43 -42 0 -37 -32 -60 -83 -60 -26 0 -36 -4 -31 -11 11 -19 104 -3 131 22 27 26 31 80 8 99 -9 7 -39 15 -68 18 -48 5 -50 4 -34 -12z"></path><path id="p1CA6ivd9n" d="M7770 6170 c-5 -15 -7 -98 -3 -113 3 -13 12 -17 31 -15 21 2 28 9 30 31 3 22 -1 27 -17 27 -14 0 -22 8 -27 28 -8 35 -12 48 -14 42z"></path><path id="p16X2beWzf" d="M5953 6130 c4 -14 7 -40 7 -57 0 -29 3 -33 26 -33 14 0 23 4 19 9 -3 5 -1 12 5 16 5 3 9 25 9 48 -1 23 -3 34 -6 25 -2 -10 -9 -18 -15 -18 -6 0 -20 8 -31 18 -20 16 -20 16 -14 -8z"></path><path id="pEKjhXuKx" d="M5665 6113 c-22 -12 -52 -23 -67 -23 -34 0 -41 -21 -11 -37 34 -18 101 5 145 49 16 16 17 20 5 15 -9 -3 -20 0 -24 7 -6 9 -17 7 -48 -11z"></path><path id="p11wYoWsZJ" d="M7520 6109 c-19 -11 -45 -19 -58 -19 -18 0 -22 -4 -17 -19 4 -14 0 -21 -12 -24 -10 -3 4 -3 30 0 66 5 127 38 120 63 -6 24 -17 24 -63 -1z"></path><path id="pK39fggFh" d="M7279 6113 c0 -4 -2 -16 -4 -25 -4 -21 11 -34 50 -42 27 -6 31 -4 33 19 1 18 -3 25 -16 25 -10 0 -28 7 -40 16 -12 8 -22 12 -23 7z"></path><path id="pgKWYPZd4" d="M6090 6075 c0 -8 7 -15 15 -15 8 0 15 7 15 15 0 8 -7 15 -15 15 -8 0 -15 -7 -15 -15z"></path><path id="peQx394hY" d="M6809 6054 c-11 -14 -10 -15 11 -12 13 1 25 9 28 16 5 17 -23 15 -39 -4z"></path><path id="pTEVYajm5" d="M5493 6043 c9 -2 25 -2 35 0 9 3 1 5 -18 5 -19 0 -27 -2 -17 -5z"></path><path id="pdRXCiLuP" d="M4618 5453 c21 -4 24 -9 20 -44 -2 -22 1 -39 7 -39 15 0 58 67 50 79 -3 6 -27 10 -53 10 -26 -1 -36 -4 -24 -6z"></path><path id="pQblbYo6R" d="M6287 5440 c8 -29 22 -35 40 -17 19 19 9 37 -22 37 -18 0 -22 -4 -18 -20z"></path><path id="pmY1lyroQ" d="M8763 5453 c-18 -7 -16 -30 1 -30 8 0 12 6 9 13 -3 8 6 14 24 17 25 4 25 4 3 5 -14 0 -31 -2 -37 -5z"></path><path id="p129uzDyTF" d="M8918 5423 c-19 -5 -24 -18 -10 -27 4 -2 13 4 20 15 7 10 11 18 10 18 -2 -1 -11 -3 -20 -6z"></path><path id="pvMo1xLOh" d="M4616 5334 c-4 -11 -1 -14 11 -12 9 2 18 9 21 16 6 18 -25 15 -32 -4z"></path><path id="p17YtNYSSt" d="M1115 4435 c-3 -8 -7 -22 -10 -31 -3 -8 -1 -13 4 -10 5 3 11 17 13 31 6 27 0 34 -7 10z"></path><path id="pz5sRX0wF" d="M7150 4310 c0 -5 16 -10 35 -10 19 0 35 5 35 10 0 6 -16 10 -35 10 -19 0 -35 -4 -35 -10z"></path><path id="pqza6MYov" d="M1065 4250 c-12 -19 -18 -55 -21 -120 -4 -82 2 -69 19 43 13 87 14 96 2 77z"></path><path id="p19gQr52Ah" d="M1417 3734 c3 -8 11 -14 19 -14 21 0 17 17 -5 23 -14 3 -18 1 -14 -9z"></path><path id="p9dXZRZgL" d="M1500 3710 c0 -5 7 -10 15 -10 8 0 15 5 15 10 0 6 -7 10 -15 10 -8 0 -15 -4 -15 -10z"></path><path id="ppJcXHN4F" d="M1560 3700 c0 -5 7 -10 15 -10 8 0 15 5 15 10 0 6 -7 10 -15 10 -8 0 -15 -4 -15 -10z"></path><path id="pmMCz0w06" d="M6248 3693 c34 -14 71 -60 74 -91 2 -30 4 -31 15 -16 35 48 1 104 -64 110 -21 2 -32 0 -25 -3z"></path></g></g><g id="l5vxvQ7zPssqruS6aBrbbZg" fill="rgb(6,155,47)" style="transform: none;"><g><path id="pu0GOXdL0" d="M8730 6645 c-63 -20 -100 -42 -134 -79 -36 -40 -72 -111 -79 -158 -6 -37 -5 -38 24 -38 30 0 78 24 92 47 4 7 24 20 42 28 19 7 56 30 81 49 26 20 57 36 70 36 13 0 52 -19 86 -42 35 -22 86 -56 114 -75 49 -32 123 -48 96 -21 -7 7 -12 20 -12 31 0 34 -63 132 -107 166 -78 60 -188 83 -273 56z"></path><path id="pP1VRxJj5" d="M8517 6283 c13 -82 83 -169 175 -218 39 -21 61 -25 131 -25 79 0 88 2 146 37 65 39 122 106 139 164 5 19 13 42 17 52 13 30 -31 20 -107 -25 -109 -66 -134 -82 -161 -101 -25 -18 -27 -18 -57 -1 -16 10 -30 22 -30 25 0 4 -10 11 -22 15 -13 3 -36 16 -53 28 -68 48 -139 86 -161 86 -21 0 -22 -3 -17 -37z"></path></g></g><g id="l6cLzNRUUc1Prxthh8KGsGh" fill="rgb(249,223,2)" style="transform: none;"><g><path id="po1cMFqH4" d="M8785 6562 c-16 -8 -46 -28 -67 -44 -20 -15 -52 -35 -72 -43 -19 -8 -39 -21 -43 -29 -4 -8 -27 -24 -50 -36 -40 -21 -43 -25 -43 -65 0 -41 2 -44 53 -75 28 -18 71 -46 94 -61 23 -16 46 -29 51 -29 6 0 17 -6 24 -13 31 -31 92 -65 107 -60 9 3 33 19 53 34 20 16 47 34 60 39 13 6 57 32 98 58 l75 48 3 51 3 52 -60 43 c-116 83 -230 150 -250 147 -3 -1 -19 -8 -36 -17z m88 -108 c48 -25 67 -45 67 -72 0 -21 2 -22 15 -12 13 10 15 9 15 -9 0 -12 -6 -24 -14 -27 -8 -3 -12 -13 -9 -24 3 -13 -10 -29 -51 -60 -53 -40 -57 -41 -91 -30 -19 6 -39 18 -43 27 -5 8 -24 18 -42 22 -38 7 -53 31 -21 31 23 0 29 28 10 47 -22 22 35 95 91 116 25 9 40 8 73 -9z"></path></g></g><g id="l5Bde31Y3hBtQM78iMLN8Ds" fill="rgb(3,36,121)" style="transform: none;"><g><path id="pFoVrMFWF" d="M8750 6481 c-19 -10 -45 -33 -57 -51 -25 -36 -31 -98 -11 -118 38 -38 273 28 295 84 8 22 -23 62 -67 84 -49 25 -115 26 -160 1z"></path><path id="pprGWPo5N" d="M8956 6335 c-11 -8 -28 -15 -37 -15 -10 0 -22 -6 -26 -13 -9 -16 -84 -30 -160 -31 -29 -1 -53 -3 -53 -6 0 -12 70 -70 95 -80 54 -20 95 -12 152 30 36 28 53 48 53 63 0 12 3 32 6 45 7 25 -3 28 -30 7z"></path></g></g></svg>
